# xmcd
#
# Track frame offsets:
#	150
#	23250
#	36100
#	50275
#	65700
#	75250
#	96900
#	120600
#	131100
#	153450
#	177825
#	194400
#	214200
#	245625
#	278272
#
# Disc length: 4092 seconds
#
# Revision: 1
# Processed by: cddbd v1.5.2PL0 Copyright (c) Steve Scherf et al.
# Submitted via: audiograbber 1.83.01
#
DISCID=c60ffa0f
DTITLE=Various Artist - Giants of Blues CD 2
DYEAR=1992
DGENRE=Blues
TTITLE0=Going Up And Down
TTITLE1=Zydeco Et Pas Sale
TTITLE2=Wrap It Up
TTITLE3=Easy Baby
TTITLE4=Looking Good
TTITLE5=Blues Before Sunrise
TTITLE6=Walk On
TTITLE7=Sweet Home Chicago
TTITLE8=Tell Me Baby
TTITLE9=Shake It Baby
TTITLE10=Gamblin' Woman
TTITLE11=What My Mama Told Me
TTITLE12=Man And The Blues
TTITLE13=Detroit, Michigan
TTITLE14=Boy From Black Bayou
EXTD=
EXTT0=
EXTT1=
EXTT2=
EXTT3=
EXTT4=
EXTT5=
EXTT6=
EXTT7=
EXTT8=
EXTT9=
EXTT10=
EXTT11=
EXTT12=
EXTT13=
EXTT14=
PLAYORDER=
